<?xml version="1.0" encoding="UTF-8" standalone="no"?>
<!DOCTYPE svg PUBLIC "-//W3C//DTD SVG 20010904//EN"
              "http://www.w3.org/TR/2001/REC-SVG-20010904/DTD/svg10.dtd">

<svg xmlns="http://www.w3.org/2000/svg"
     width="63.4921mm" height="63.4921mm"
     viewBox="0 0 180 180">
  <path id="Selection"
        fill="white" stroke="white" stroke-width="1"
        d="M 83.00,14.46
           C 74.71,15.51 69.12,15.39 61.00,18.88
             47.13,24.84 39.18,39.03 40.04,54.00
             40.18,56.41 40.64,59.55 43.21,60.60
             45.98,61.73 47.72,59.27 48.43,56.96
             49.71,52.82 47.77,42.28 59.01,32.18
             65.45,26.41 73.49,24.10 82.00,24.00
             98.81,23.81 114.60,24.74 126.90,38.01
             129.79,41.13 131.48,44.11 133.13,48.00
             145.22,76.62 119.09,91.35 111.91,116.00
             108.99,126.02 103.70,140.17 96.82,148.00
             94.05,151.14 90.31,155.10 86.00,155.76
             74.23,157.55 64.39,138.69 59.78,130.00
             58.08,126.80 55.63,120.96 51.91,119.84
             44.76,117.69 45.94,127.28 47.53,131.00
             47.53,131.00 54.00,142.00 54.00,142.00
             62.25,155.69 71.73,169.00 90.00,164.76
             104.83,161.31 113.69,143.22 118.31,130.00
             118.31,130.00 123.87,113.00 123.87,113.00
             132.12,94.12 145.28,87.43 145.00,62.00
             144.64,30.82 120.29,16.52 92.00,14.97
             92.00,14.97 83.00,14.46 83.00,14.46 Z
           M 109.00,89.00
           C 120.16,85.53 122.18,62.03 116.92,53.00
             111.10,43.02 98.79,39.77 88.00,40.01
             80.96,40.17 72.34,42.29 67.10,47.21
             58.47,55.32 58.35,73.55 62.10,84.00
             64.43,90.49 67.89,92.10 70.26,96.00
             74.52,103.01 65.21,109.95 73.06,112.08
             80.76,114.16 86.53,102.47 85.89,96.00
             85.38,90.86 82.39,88.64 79.17,85.00
             74.57,79.81 69.88,74.18 69.20,67.00
             68.83,63.12 70.04,59.41 71.82,56.00
             81.70,37.17 105.65,43.27 113.01,55.00
             119.66,65.62 113.12,78.70 109.00,89.00 Z" />
</svg>
